/* XPM */
static char *_2abf64605d44708e04851e6f22a706cr7UV1JCWQH2Htt8l[] = {
/* columns rows colors chars-per-pixel */
"64 64 255 2 ",
"   c None",
".  c #000001",
"X  c #00000C",
"o  c #000112",
"O  c #00011B",
"+  c #03091C",
"@  c #00131E",
"#  c #32070F",
"$  c #000223",
"%  c #000A23",
"&  c #00002A",
"*  c #060B2A",
"=  c #1C0F29",
"-  c #170523",
";  c #001424",
":  c #001925",
">  c #00152A",
",  c #011B2B",
"<  c #0B1A2C",
"1  c #0B142C",
"2  c #151C2E",
"3  c #181B2D",
"4  c #1B1D32",
"5  c #151A31",
"6  c #091832",
"7  c #24152C",
"8  c #221F32",
"9  c #2B1C33",
"0  c #331330",
"q  c #01222A",
"w  c #0E202D",
"e  c #16232E",
"r  c #1A2030",
"t  c #122532",
"y  c #242232",
"u  c #2C2333",
"i  c #2D2A36",
"p  c #332233",
"a  c #3A2634",
"s  c #372A32",
"d  c #4D0000",
"f  c #470003",
"g  c #510000",
"h  c #4C0010",
"j  c #750017",
"k  c #4B052A",
"l  c #501731",
"z  c #6E0535",
"x  c #770034",
"c  c #6B052E",
"v  c #492635",
"b  c #462635",
"n  c #512A36",
"m  c #582838",
"M  c #4A3738",
"N  c #5A3535",
"B  c #51282D",
"V  c #662A3A",
"C  c #683339",
"Z  c #743838",
"A  c #772836",
"S  c #6F3F19",
"D  c #554137",
"F  c #6B4836",
"G  c #774636",
"H  c #765639",
"J  c #6C5132",
"K  c #323549",
"L  c #350048",
"P  c #5B0D48",
"I  c #611542",
"U  c #681B45",
"Y  c #751A46",
"T  c #731345",
"R  c #780754",
"E  c #472842",
"W  c #742851",
"Q  c #6E2845",
"!  c #7D3375",
"~  c #395D67",
"^  c #6A5158",
"/  c #86001B",
"(  c #840004",
")  c #AF0A0A",
"_  c #BA300B",
"`  c #9A002D",
"'  c #8B013C",
"]  c #97053B",
"[  c #8B002E",
"{  c #AA0B31",
"}  c #86263C",
"|  c #92263F",
" . c #992D3F",
".. c #83373D",
"X. c #A62E3F",
"o. c #C63B12",
"O. c #D30F34",
"+. c #D22F3C",
"@. c #ED393E",
"#. c #E03D11",
"$. c #8B5439",
"%. c #B94835",
"&. c #9C643A",
"*. c #896C37",
"=. c #A66D3B",
"-. c #CA4311",
";. c #CC5327",
":. c #E54E33",
">. c #D96D33",
",. c #F26A2A",
"<. c #E74718",
"1. c #8F134F",
"2. c #A61B4A",
"3. c #B71B46",
"4. c #AF164D",
"5. c #9D2D41",
"6. c #952D43",
"7. c #9C3942",
"8. c #8D2850",
"9. c #A92648",
"0. c #B72848",
"q. c #A93843",
"w. c #B33844",
"e. c #BB2B56",
"r. c #892463",
"t. c #BD2963",
"y. c #C91B53",
"u. c #C42C48",
"i. c #C72947",
"p. c #D72A4A",
"a. c #C93648",
"s. c #D3324A",
"d. c #D53D4A",
"f. c #DA3D49",
"g. c #D93746",
"h. c #C12057",
"j. c #D02856",
"k. c #E73649",
"l. c #FD334E",
"z. c #FF3B4E",
"x. c #F6384A",
"c. c #FF2A54",
"v. c #FF2A59",
"b. c #FF3451",
"n. c #FF3B54",
"m. c #FA3858",
"M. c #ED2E4E",
"N. c #E91E64",
"B. c #FF1B6C",
"V. c #D93768",
"C. c #F02268",
"Z. c #E61E5B",
"A. c #B54245",
"S. c #A54A4D",
"D. c #8D6866",
"F. c #C74446",
"G. c #DC454A",
"H. c #DD4B4B",
"J. c #D64748",
"K. c #DD4F52",
"L. c #E34345",
"P. c #E2454A",
"I. c #E44A4A",
"U. c #EA4D4B",
"Y. c #E74947",
"T. c #F44D4D",
"R. c #FD4C4C",
"E. c #F9444B",
"W. c #E4524C",
"Q. c #EC524B",
"!. c #EC594A",
"~. c #EA5246",
"^. c #F4534B",
"/. c #FD544E",
"(. c #FE5B4B",
"). c #F65A49",
"_. c #FE4A53",
"`. c #E95856",
"'. c #FF5451",
"]. c #FF5C53",
"[. c #FD5C5C",
"{. c #E34F57",
"}. c #DB7843",
"|. c #CC7C40",
" X c #FB644D",
".X c #FE6254",
"XX c #FF6D55",
"oX c #FF665B",
"OX c #F0714E",
"+X c #FF4567",
"@X c #F47765",
"#X c #DB8335",
"$X c #E8883C",
"%X c #FA8F32",
"&X c #FFA832",
"*X c #FFD033",
"=X c #B89D6D",
"-X c #D98951",
";X c #E79A47",
":X c #F98F4A",
">X c #FFB64B",
",X c #FDB452",
"<X c #FDA850",
"1X c #F3997B",
"2X c #EC9570",
"3X c #EDB67A",
"4X c #F6B779",
"5X c #F0AA6A",
"6X c #CEA477",
"7X c #FFD14E",
"8X c #FFFF55",
"9X c #FFFD5A",
"0X c #FFEC54",
"qX c #F9C774",
"wX c #597581",
"eX c #A27792",
"rX c #CB7699",
"tX c #E377A0",
"yX c #6C8689",
"uX c #758C92",
"iX c #978695",
"pX c #AB8694",
"aX c #A5ABB4",
"sX c #B3AAB4",
"dX c #94A0A6",
"fX c #F6A683",
"gX c #F0B883",
"hX c #CCAD9A",
"jX c #FFCD89",
"kX c #F9C886",
"lX c #FFD58A",
"zX c #FDD894",
"xX c #EDC286",
"cX c #FFE697",
"vX c #FFFC9B",
"bX c #FFF289",
"nX c #FEF0AC",
"mX c #F3DCA5",
"MX c #A3AEC2",
"NX c #D9ACC9",
"BX c #DEB2C7",
"VX c #F1ACCC",
"CX c #91C5C4",
"ZX c #B6EAE6",
"AX c #C6C6CD",
"SX c #ECD1DB",
"DX c #FBD8EB",
"FX c #CEF0EB",
"GX c #FFFFEA",
"HX c #FFE2F3",
"JX c #FFEDFB",
"KX c #FFFFFF",
"LX c #FEF4FD",
"PX c #F5E2EB",
"IX c #FFFFC4",
/* pixels */
"                                                                                                                                ",
"                                                                                                                                ",
"                                                                                                                                ",
"                                                                                                                                ",
"                                                                                                                                ",
"                * % : : : ,                                                                       > % % * % %                   ",
"              C  ...V U V X.                                                                      A.Z Z Z ..q.C                 ",
"            % u (.oXk.M.z.0.@         3 < < < < < < < < < < < < < < < < < < < < < < <           % L.[./.'..XU.4 >               ",
"            V V A.L.9.0.n.u.e A       Z m n v n n n n n n n n n n n n n n n n n n n n Z       ..t L.'.F.w.U.w.N C               ",
"        > 9 .X'.5 $ % 3 b.k.m.6.; ; < F.'.Y.E.T.T.^.T.^.T.^.T.^.T.^.^.T.^.T.T.^.T.R.].w.< > ; q.XXx.c.> * O 9 (.].8             ",
"        , 4 T.'.s , t s 0.s.m.Q s w i F.'.[..XR.R.'././.'.'./././././.'./.'.'./.'.'.].w.y 2 1 7.@Xi.9.i t q D R.G.w <           ",
"        p < $ O %X*X&X%X& % . m R.x.x.@.I.fXmXH.+.H.G.J.G.G.J.J.G.G.G.G.J.G.G.J.G.G.G./.(.E.Z.p.b.* % %X&X*X>.O $ 2             ",
"        5 y 1 N -X,X<X;XO 4 - S.oXoX`.I.I.@X1XI.L.U.I.I.L.I.I.I.I.I.I.I.I.I.I.I.U.I.I.Y.Q.P.g.a.m.* O :X<X,X-XM 5 r             ",
"        & u &X0XvXIXcX6Xo m R.@XfXfX1X`.+.L.k.P.Y.I.I.I.I.I.I.I.I.I.I.I.P.I.I.I.I.I.I.I.Y.U.Q.J.v.= $ gXcXnXvX7X%X5 *           ",
"          M #X;X=XhXzXxXX v R.@XfXgX1X`.@.H.G.Y.I.I.I.I.I.I.I.I.I.I.I.I.I.Y.I.I.I.I.I.H.P.U.Q.f.v.* + lXzXhX=X;X>.s             ",
"            s 8 + b cXzX. y @.@X1XfX2X`.@.I.I.I.I.I.I.I.I.I.I.I.I.I.I.I.I.I.I.I.I.I.I.I.I.I.Q.d.c.$ o vXlXp $ y M               ",
"            & & X 3 lX3X+ m z.@X2X2X2X`.k.I.I.I.P.Y.I.I.I.I.I.I.I.I.I.I.I.I.I.I.I.I.I.I.I.U.Q.d.b.7 O jXlX% X &                 ",
"                    i s E.U.R.H.U.H.Y.H.I.I.I.I.I.I.I.I.I.I.I.I.I.I.I.Y.I.I.I.I.I.I.I.I.I.I.I.I./.g.i.9 s                       ",
"                    o = oX'.F.L.g.@.g.I.I.I.I.I.I.I.I.I.I.I.I.I.P.G.L.G.J.G.I.I.I.I.P.I.I.I.I.I.!.m.b.$ O                       ",
"                    q e .X(.(.^.U.I.I.I.I.I.I.I.I.I.I.I.I.I.P.U.^.(.).(.(.(.I.I.I.I.I.I.I.I.I.I. XM.p., q                       ",
"                    K v [.oXK.Q.I.I.I.I.I.I.I.I.I.I.P.I.I.I.P.Y.W.K.`.{.{.{.U.U.G.I.I.I.I.I.I.I.W.k.k.9 b                       ",
"                q 0 / / / / h {  X^.P.I.I.I.I.I.I.I.I.I.I.P.(./.{ j j / j j (.(.I.I.I.I.I.I.W.g.2.P.^.k.s.9 ,                   ",
"                : 7 t.V.8.1.! 0.:.U.I.I.P.I.I.L.I.I.I.P.I.W.T.:.e.r.r.8.r.r.G.I.U.I.I.I.I.U.Q.g.4.U.!.n.p.e ,                   ",
"                X K PXJXSXSXLXrX` g.]./.T././.^.T.'./.^.'.].{ ` pXKXSXDXPXKX] { Q.U.I.I.I.U.U.K.f.U.W.x.u.2 ,                   ",
"                . K KXKXKXKXKXNXc p.].(.'./.'././.'./.'.'..X` c NXKXKXKXKXKXz x ).Q.L.I.U.I.U.!.).~.W.l.i.r ,                   ",
"                X u KXKXKXKXKXiX. - 7 = = = = = = = = 7 + . pXKXKXKXKXKXKXKXx 1.).Q.G.Q.I.G.i.s.u.K.W.l.i.r q                   ",
"                X i KXKXKXKXGXdX. X O O O O O O O O O O . . CXKXKXKXKXKXKXKXx ` ^.Q.G.I.U.d.i.i.3.I.W.b.u.4 ,                   ",
"                X i KXKXKXKX. D.cXzXxX4X3X3X3X3X3X3XxXkXzXcXD $ MXKXKXKXKXKXx ] ).^.G.U.U.d.3.i.3.I.W.b.u.e ,                   ",
"                . i KXKXKXAX. D.cXlXkXjXjXlXjXlXjXjXjXkXzXcXJ X wXLXKXKXKXKXx ] ).Q.L.U.I.G.i.a.i.U.W.b.i.r ,                   ",
"                . K KXKX* ^ =X-X:X>.}.gXcXkXgXqXqXnXqX;.>.OX-X6X^ K FXLXKXKXz [ ).Q.I.I.I.P.G.G.f.I.W.z.i.r                     ",
"                X K KXKX. # KX:X_ _ -.5XzXgXgX3XgXmX5X_ -._ 5XvXF . sXJXLXKXx ] ^.Q.P.I.I.U.Q.Q.U.~.H.b.u.e ,                   ",
"              r + i tXrX. B GX}.o.>.$X>.}.3XzXxXqX}.}.$X>.;.:XqXJ X D.VXeXrX{ 3.Q.U.I.I.I.I.U.I.I.U.~.j.2.2 , 4                 ",
"            : , q - ( j X D GX}._ $X>X-._ 2XmXkX3X) -.7X%X,.,.%XJ & h ( f d +.g.U.I.G.I.I.I.I.I.G.).U.1.P & > > >               ",
"          v k.0.w t m.V.X M GXOX-.$X;X>.;.3XcXkXkX;.;.7X&.+ =.<XH & 6.+Xt.V.U.U.Q.Q.Q.Q.U.P.I.I.P.Q.U.k.f.%.A.J.F.b             ",
"        , , n.b.< : z.M.o M LX:X<.$X;X;.-.5XmXgXxX_ %.7XH & J >XH & q._.d.U.oX X.X.X.X!.H.G.U.I.U.I.Q.!./././..XJ.> >           ",
"      5 q.6.l.g., q _.^.O b 9X$.o -X>X,.:.4XnXkXjX#.,.9X&.& $.>XH $ c O.[ ` ` { ` ` [ O.(./.G.I.!.f.s.U.Q.Q.U.R.G.w.A.<         ",
"    2 : u.k.n.u., , ].'.$ a 8XN $ =.>X,.;.4XzXkXjXo.>.0X&.& $.<XH O T y.x ] ' ' ' ' 1.3.:.^.U.P.^.a.i.L.U.L.I.H.T./.F.*   4     ",
"    2 , u.M.l.u., , '.'.O a 8XN & i H b a -XqX,X5X# 0 &.i $ &.7XJ o iXHXNXBXBXBXBXBXDXeXl | ].I.(.2.1.G.k.g.d.W./.(.F.%         ",
"      , w.s.b.a., q '.Q.$ b 9XG $ & $ $ & =.&X%X#X$ & & & & =.,XS X FXKXKXKXKXKXKXKXKXFXO # oXU. X1.R i.d.0.i.H.)./.A.>         ",
"      , 0.s.b.0., , '.R.0 C =.$.$.G G N J >.:X$X:XN Z G G $.$.*.A k eXFXdXaXaXaXaXMXAX~ O V [.I.).e.2.9.0.0.s.d.G.x.q.:         ",
"    2 , k.m.+Xb.5 : '.'.v.T X =.9X9X8X8X8X7X7X7X7X8X8X8X8X8X*.o L B.. . . . . . . . . . > 6.].U.!.k.k.P R n.n.c.v.v.i.;   4     ",
"        5.V A V > w ^.'.G.d.7 7.G Z Z Z F Z F F F Z Z Z G G C I 1.3.8.E W W W W W W 8.E , Q ).K.!.s.u.p.0.m n V C V 5.          ",
"        , , , < > u T.'.W.G.v.l % & $ % + % O + $ + % % O $ P C.N.h.N.N.N.N.N.N.N.N.B.8.> N '.U.!.s.0.l.a.> : , , , w           ",
"          q     > u U.'.W.J.+Xn + 9 Y I P I I I I I I I m I l k k 0 k k k k k k k k c 7 , C '.U.!.s.0.n.u.t ,     <             ",
"                : u U.'.J.J.XXC ; Y j.h.e.h.h.h.e.h.h.h.y.y.l o X o X o X o X o o X X O ; Z ].I.!.i.0.l.u.r ,                   ",
"                ; y T.].G.H..X .N U T Y T T Y Y Y Y T Y Y z ^ uXuXyXyXyXyXyXyXyXyXyXdX~ + l ].U.Q.s.0.z.s.4 ,                   ",
"                > p /.[.H.I.P.R.].v ; @ : : ; @ : : : : + . CXKXKXKXKXKXKXKXKXKXKXKXKXFXO # .XQ.!.s.0.z.s.r :                   ",
"                  C d.F.T.U.J././...p a n b b b b v v v b # pXLXKXDXHXHXHXHXHXHXHXJXKXsX0 A /.P.G.g.p.q.u.m                     ",
"                    $ , .X(.P.G.P.].XXXXXXXXXXXXXXXXXXXXXX@XO.d # d d g d g g g d f # ` /.XX Xg.2.x.k.> ;                       ",
"                    w p _.Y.U.I.K.J.f.d.G.f.g.g.f.f.f.J.f.G.i.2.2.e.4.9.9.4.9.2.2.0.0.a.Q.I.d.s.i.p.M.4 2                       ",
"                    5 9 v.n.!.W.!.x.l.b.b.l.l.l.l.l.l.l.l.l.b.z.z.z.n.z.n.n.z.n.b.E./.).Q.d.3.i.u.z.n.8 2                       ",
"                    e m 9.X.R.I.'.9.A Y 8.} | | | | | | | |  .5.X. .5.5.5.5.5.q.A w.U.T.I.G.a.s.k.X.9.v w                       ",
"                        : b v.L.].n : , e r r y 8 8 y y y y y r 8 8 y 4 y 4 8 u 1 l s.k.H.Q.W.d.c.p ,                           ",
"                        : y c.f.[.N : 5 8 , , , , : , , , , , , : , , , , , , , ; 9 p.m.H.Q.^.J.c.t ;                           ",
"                        : v v.I./.k.p.b.x.m ,                                   > m M._.I.~.U.J.c.a <                           ",
"                        ,  .y.f.].k.g.b.M.b :                                   : } i.g.U.U.W.d.c.9 :                           ",
"                            o G .XL.0.M.g.a ;                                       > b ^./.W.f.c.p q                           ",
"                            % 6.'.s.9.k.s.b :                                       > m R./.H.F.c.p ,                           ",
"                            ; 6.n.b.x.n.b.a >                                       > C ].[.(._.v.p ,                           ",
"                            ; 5.p.w.0.s.u.V ;                                       > ..U.H.H.w.M.m ,                           ",
"                                u u 9 y p                                             C a 9 i 9 8                               ",
"                                > > : : ,                                               > > > : >                               ",
"                                u u u p u                                               p 9 u u u                               ",
"                                                                                                                                "
};
