/* XPM */
static char *d9826d6aa57345d1e006a4f75240620bDs7RWnHXTaqBVERl[] = {
/* columns rows colors chars-per-pixel */
"64 64 248 2 ",
"   c None",
".  c #000001",
"X  c #00020D",
"o  c #000A0B",
"O  c #0A000E",
"+  c #000B13",
"@  c #030718",
"#  c #1C011A",
"$  c #021218",
"%  c #1E0006",
"&  c #250006",
"*  c #230014",
"=  c #23031B",
"-  c #24081E",
";  c #1E0223",
":  c #1A0B2A",
">  c #0A1A25",
",  c #181828",
"<  c #181134",
"1  c #220C21",
"2  c #220724",
"3  c #21152A",
"4  c #221C2E",
"5  c #251327",
"6  c #241F31",
"7  c #320633",
"8  c #062827",
"9  c #152D34",
"0  c #222233",
"q  c #252939",
"w  c #31293B",
"e  c #35273B",
"r  c #23363C",
"t  c #37313F",
"y  c #002115",
"u  c #4F0028",
"i  c #28463D",
"p  c #114E38",
"a  c #1E3442",
"s  c #1D3D4A",
"d  c #0C3850",
"f  c #223C45",
"g  c #3A2F45",
"h  c #030E6B",
"j  c #3B007C",
"k  c #073B68",
"l  c #06306D",
"z  c #00005F",
"x  c #511A4C",
"c  c #482A48",
"v  c #443948",
"b  c #5C3955",
"n  c #542E4E",
"m  c #623A5B",
"M  c #74265D",
"N  c #6F3B63",
"B  c #643B61",
"V  c #743B68",
"C  c #7D2E74",
"Z  c #681B4A",
"A  c #1E5659",
"S  c #1B474F",
"D  c #21454A",
"F  c #214C52",
"G  c #205458",
"H  c #314C48",
"J  c #286E55",
"K  c #0E4D6A",
"L  c #0C4568",
"P  c #0F526C",
"I  c #0F5E6B",
"U  c #11556D",
"Y  c #125A6D",
"T  c #1B5862",
"R  c #115C71",
"E  c #145770",
"W  c #0F5872",
"Q  c #1B676A",
"!  c #1B6D71",
"~  c #146774",
"^  c #197677",
"/  c #15726C",
"(  c #237572",
")  c #227364",
"_  c #205862",
"`  c #514A57",
"'  c #79436B",
"]  c #7A546A",
"[  c #72496A",
"{  c #786674",
"}  c #5B5660",
"|  c #853871",
" . c #895A72",
".. c #894B76",
"X. c #966179",
"o. c #836B79",
"O. c #A2457D",
"+. c #1C857C",
"@. c #1E8A7B",
"#. c #169170",
"$. c #2A8A67",
"%. c #289567",
"&. c #248873",
"*. c #249D7D",
"=. c #259675",
"-. c #36936A",
";. c #26A86B",
":. c #36BB6E",
">. c #37BA6D",
",. c #2CA574",
"<. c #2DAD73",
"1. c #29A879",
"2. c #30AD73",
"3. c #2FB173",
"4. c #2BB57B",
"5. c #31B373",
"6. c #34BA73",
"7. c #3BBB76",
"8. c #2EAC6D",
"9. c #149C64",
"0. c #579F71",
"q. c #53916C",
"w. c #44B977",
"e. c #4DA973",
"r. c #3BC46A",
"t. c #3BC76D",
"y. c #38C676",
"u. c #3BD778",
"i. c #2EC77D",
"p. c #3DE576",
"a. c #48C27D",
"s. c #44CC61",
"d. c #42EA78",
"f. c #3C0080",
"g. c #002282",
"h. c #440084",
"j. c #147885",
"k. c #137D91",
"l. c #B22FAA",
"z. c #923880",
"x. c #994B87",
"c. c #974C85",
"v. c #A7578A",
"b. c #B95C99",
"n. c #AA4A94",
"m. c #957185",
"M. c #B46C92",
"N. c #AA44A4",
"B. c #BD4BB3",
"V. c #B246AC",
"C. c #C2649C",
"Z. c #CB57AE",
"A. c #D872B0",
"S. c #E76BBC",
"D. c #EC76B9",
"F. c #E15CBA",
"G. c #D02DC4",
"H. c #FC7AC9",
"J. c #FF79D9",
"K. c #F667C9",
"L. c #FF5FE4",
"P. c #FF78E5",
"I. c #FF79FF",
"U. c #D753C6",
"Y. c #1A8483",
"T. c #198A88",
"R. c #1C9687",
"E. c #189594",
"W. c #189C97",
"Q. c #138593",
"!. c #229C82",
"~. c #229685",
"^. c #218A86",
"/. c #1BA294",
"(. c #1AAB9A",
"). c #1BB099",
"_. c #24A786",
"`. c #28B587",
"'. c #23B495",
"]. c #0B90A4",
"[. c #15A9A6",
"{. c #13B9B3",
"}. c #17B7A9",
"|. c #20B0A0",
" X c #69BA80",
".X c #37CA81",
"XX c #35D784",
"oX c #2ECC89",
"OX c #37EB8F",
"+X c #19CCB6",
"@X c #53CC84",
"#X c #48C280",
"$X c #68D68B",
"%X c #71EC96",
"&X c #7DFFA8",
"*X c #1AEBCA",
"=X c #0ECAC7",
"-X c #9C848E",
";X c #BAA3A8",
":X c #AC8392",
">X c #D589AE",
",X c #EC88B9",
"<X c #F58BB8",
"1X c #EC93B9",
"2X c #F594BB",
"3X c #F59ABD",
"4X c #F899BD",
"5X c #E48EAF",
"6X c #FAA5BE",
"7X c #FDB3BD",
"8X c #E6A2BD",
"9X c #CAA6AF",
"0X c #88F89D",
"qX c #8AFFB9",
"wX c #93FEB5",
"eX c #FC87CB",
"rX c #FA9CC1",
"tX c #FB97C6",
"yX c #FF85D9",
"uX c #FF96D7",
"iX c #DEAAC7",
"pX c #FCA3C2",
"aX c #FFA4CA",
"sX c #FDAAC4",
"dX c #FCB8C9",
"fX c #FFACD6",
"gX c #FEB9D7",
"hX c #E5B4CD",
"jX c #FF8AE5",
"kX c #FF95E8",
"lX c #FF87F8",
"zX c #FF97FC",
"xX c #FFBDE5",
"cX c #FFA4FB",
"vX c #FFABFA",
"bX c #FFADF5",
"nX c #96FFC3",
"mX c #FFC6D9",
"MX c #FCD1D4",
"NX c #FFC5EA",
"BX c #FFD4E8",
"VX c #FFC6F7",
"CX c #FFD9FD",
"ZX c #FFE4E6",
"AX c #FFFFEA",
"SX c #FFE5FC",
"DX c #FFFFFF",
"FX c #FFF4F5",
/* pixels */
"                                                                                                                                ",
"                                                                                                                                ",
"                                                        @ @ @ @ @ $ $ @ @ $ $                                                   ",
"                                                        ` w w t w w e w g q b                                                   ",
"                                                  X . . hXAXMXMXZXgX2X3XrXfX1X> ,                                               ",
"                                                o.` v t dXSXBXBXZXmXtXfXaXNX1X@ ,                                               ",
"                                          X o . { DXFXFXsX<X2X2X2X4X2XrX2XfX>X.                                                 ",
"                                          o.] v :XSXmXmXpX1X2X2X2X4X3X3XrXfX5Xb ..                                              ",
"                                      . . DXDXDXBXD.<X2XgXVXNXNXNXNXNXfX6X7XpXzXZ..                                             ",
"                                      -Xm.dXgXdXsX2XpXsXv.] X.X.X.X.[ >XtXeXD.jXv..                                             ",
"                                  + . MXDX4X<X<X2X4XxXVX@ . . . . . . n.zXP.J.jX...                                             ",
"                      4 4 4 0 0   M.M.8XgX3X4X4X6XxXv.c q.e.0.0.0.0.w.[ M n V yXD.v.c.$                                         ",
"                    4 ; ; 3 4 , . M.SXtX<X3XrXpXpXCXx . $XqX&XqX0X&XwXp . . 1 yXyXcX...                                         ",
"                  # $.,.5.$.. n 1X5XsX3XpXpXtXjXb.# q.$X#Xy.7.y.7.7.y.-.$.,.$.7 | vX' o                                         ",
"                r 2 %.OXXX5.X ..CXaX3XrX3XpX2XJ.| . e.qX6.9.<.;.1.;.<.i.y.OX8.. c cX' +                                         ",
"              # J 6.u.u.y 6 5X2XpX1XrXpXpXkXA.o } 0X&.k P P W U k &.u.5.2.7.,.T._ u 6 ,                                         ",
"              3 J OX3.%.4 n xXfX3X3XpXrX2XK.c.. J qX&.k I P R Y L @.5.5.5.5.1.'./ @ 9 ,                                         ",
"          2 F d.`.{.8 . Z.J.pXrXrX6XsXuXJ.= 8 p.=.h &.y.3.6.6.5.u.( h =.d.5.5.>.*.[.s &                                         ",
"          ; r OX=.I g Z D.uXrX3X6XrXtXZ.v.9 p oX=.k =.y.6.6.6.5.y.=.K &.=.5.5.6.,.).J q F                                       ",
"          1 D +XA . C.lXpXpXrXrX7XuXlX7 . p..Xh Q d.6.3.3.3.2.3.3.6.u.K l 5.u.5.5.r._.[.s -                                     ",
"          - r [.L . b.jX3XpXrX1XuXC.| } J =.#.Q =.y.8.5.<.5.5.5.3.6.7.@./ &.=.6.5.:.1.W.r 2                                     ",
"          5 9 ].9 . x.P.1X6XsX,XP.n . $XqXl K p.y.<.5.2.5.5.<.<.3.8.3.y.y.L k 6.5.6.!.E.a -                                     ",
"            s d B O.A.uXrXrXpX2XlXV . $X&XL I y.5.5.5.5.5.<.3.5.5.2.3.>.6.P Y 6.5.:._.E.r 2                                     ",
"              . v.zXrX7XpX3XdXtXzX| . a.&XL I t.6.2.<.<.5.5.5.5.3.5.8.y.6.U W y.5.6.*.E.f 1                                     ",
"              . ' jXtXpX8X1XuXb.7 } w.a..XL E _.1.6.2.5.5.5.5.5.5.5.:.1.R.K W 6.6.:.!.E.a 2                                     ",
"              . ' P.1XpXpXtXP.c.. e.nXy.9.K E Q.!.r.5.5.5.5.5.>.5.5.:.R.T.P R 6.5.:.1.E.a 1                                     ",
"          + ' S.A.H.H.,X,XD.kXv.. q.qX7.;.T.^ K ! _.!.R.*.R.R.!.*.!._.! P ^ Y.6.5.:.*.E.a 1                                     ",
"          $ b zXH.S.S.S.K.S.jXM.. q.&Xw.;._.Y.k ~ R.Y.Y.Y.Y.Y.T.Y.Y.T.R L Y._.6.5.:.*.E.a 1                                     ",
"          . < G.l.l.l.l.l.l.l.l.G.c . ;.XX7.1.T.^ L Y R R R Y Y R W K ^ T.1.5.5.5.r.`.[.f -             @ X @ @ + @             ",
"          H B U.B.B.Z.l.B.B.l.Z.L.C - ) 8.>.1._.^ K R K U P P P P P K +._.<.6.5.2.`.=.j.D 1           { v g v g g v ]           ",
"      @ v DXDXAXAXAXMXgXAXAXdXgXdXgXNX4 . oXXXt._.Q.~ L K P P P L ~ E.,.6.5.2.6.,.W.D *             . ;XDXDXDXNXgXCX ..         ",
"      $ e fXgXiXiXhX>XA.iXiXA.>XA.tXfX' c J %.t.<.!.^ ~ ~ ~ Q ~ I +._.<.6.2.5.>.=.[.D *           o.H >XCX9X;XM.>XbXM.` o.      ",
"      , 4 h.f.j j j j j j j j h.h N.yXNXmX= > oX5.r.*.k.E.T.T.T.k.1.r.3.2.5.5.r.4.=XF *         . m.DXbXL.: . . g I.xXDX[ X     ",
"      > 6 V.V.N.N.N.N.N.N.N.N.N.l.V.V.uXtX2 8 u.5.6.1.*.*.!.1.*.~.1.6.5.5.5.8._.&.T Q           .  .FXM.c.N     | | >XDX` X     ",
"      > c vXvXcXcXcXcXcXcXcXcXcXVXV.z Z.H.; 9 XX6.<.6.>.>.:.>.>.>.:.:.:.>.r.5.}.F &             o N lX@ .         . [ CXb X     ",
"      , 0 V V N V m N V m N N V n n.U.H.H.; 8 y.6.3.3.5.5.5.5.3.5.,.!.*.*._.*.~ Q ! T           X ' zXC.v.[       X X.SXb X     ",
"      0 , o o o . . . . . . . . . n.vXkXyX* > oX4.5.5.6.5.5.>.5.r.1.k.T.T.R.Y.l W *Xs &         X ..zXzXcXc $     . X.SXb o     ",
"          0 0 5 F ~.( ( ( ( ( ( #.G Z n n Y &.t.5.:.,.R.!.*.*.*._.+.P Q ~ Y ~ ^ &.i.&.~ F 1       ' b n m         . X.SXb X     ",
"          6 0 * ) +X/./././././.+XS . . + R.'.:.5.:.~.k.T.T.T.T.E.~ k K K L U T._.s._.[.a 1         o + $         .  .CXb X     ",
"                f 3 ^ |.R.R.R.R.R.~.^.^.^.W.R.!./.'.! K R Y W Y P ! Y.+.+.j.T.3.5.6.5.oXr ;                   . m F.,XBXb X     ",
"                  * ! R.+.+.@.+.+.T.R.W.R.@.@.Y.Y.Y.~ U U U U Y L ^ _.R.R.T.*.>.>.2.6.u.r ;                   9 B lXeXmX` X     ",
"                    r 4 6 6 0 3 - , 4 5 # 1 1 1 1 & T W.Y.Y.Y.Y.j.!.6.6.y.5.3.3.3.<.y.i.i #             X . 4 ZXMX<XfXCXm X     ",
"                      5 , 3 1 3 D 3 = 0 r 0 9 q 9 1 ) ).!.*.!.!.R.1.r.,.=.5.5.3.2.5.1.oXr ;           { ` t ` ZXBXaX5X5X .@     ",
"                            & f *XS & +.[.E.E.E.E.Q.1.r.5.5.5.5.<.y.u.I l ,.6.3.5.r.`.[.D # $ o X @ . ;XDXFXZX4X<XNX ..         ",
"                            f G +XD & &.'.*.*.!.!.R.4.:.5.5.5.5.6.,.&.! ~ <.6.3.2.`.&.Q 9 1 B V [ [ e 9XSXmXgX4X<XbX ..         ",
"                        1 r }./.).S * ,.u.;.;.;.8.6.8.;.8.5.5.2.t.+.l 3.d.r.:.r.1.=Xf & O w J.zXmXxXxXrX<X4X6X7XtXzXx..         ",
"                        1 q R.R.).F & %.y.a.a.a.w.;.a.@X5.<.5.2.XX) < &.`.*.*._.&.D _ _ 8 3 S.eX6XpXrXrX4X<X,XuXA...c.          ",
"                        : r }.(.+XA & %.XX%X%X0X@X9.$XwX7.;.5.2.OXi & ! {.W.W.+XT & T *X9 : S.eXpX4X6XsXsXJ.P.lXb..             ",
"                          D A D G q = $.XX$X$X%X#X9.a.#X6.<.2.2.y.&.T A f D D f G T +.(.8 # S.J.sXtXH.eXeX' b [ ..              ",
"                            = = = 1 : ;.OX$X%X%X@X%.1.;.<.5.5.2.:._.{.q & * & & r +X/.(.8 X S.eX7XtXK.J.P.0 . + +               ",
"                                      D f 7..Xw.5.<.5.5.5.2.3.5.3.3.4.^ Q ^ ^ Q ^ ).A 8 v.S.H.H.kXb., n b                       ",
"                                      # ; ;.4.;.<.5.2.5.5.8.5.5.3.5.r._.E./././.R.|.a . S.zXH.S.jXx.. $ +                       ",
"                                      3 6 i.XX5.5.6.6.5.>.6.5.5.:.5.5.>.2.2.2.>.1.{.A O w g w e w m                             ",
"                                        q 8.,.r.2.,.<.2.<.<.<.<.<.<.<.<.3.>.5.6.,.Y._ = > $ $ $ $                               ",
"                                          2 r t.`.W./././././././././.W.W.5.<./.Q *                                             ",
"                                          # r OX=.E ^ ! ! ! ! ! ! ! ! ! ! 5.4./._ *                                             ",
"                                          : D OXJ % = 5 1 1 1 1 - # 1 = # >.y./.Q *                                             ",
"                                          - a XX) f 9 1 4             3 3 =.4./.Q *                                             ",
"                                          - a {.}.*XA =               4 3 T.{.+X( *                                             ",
"                                            F A G _ G                     Q F G Q                                               ",
"                                              = * *                       = * =                                                 ",
"                                              0 q 0                       0 0 0 0                                               ",
"                                                                                                                                ",
"                                                                                                                                "
};
