/* XPM */
static char *c8810e1e33654525b009cd48ba0b6a67wnvZekEHejxsNUA0[] = {
/* columns rows colors chars-per-pixel */
"64 64 20 1 ",
"  c #060402",
". c #070503",
"X c #070603",
"o c #080702",
"O c #090703",
"+ c #0B0703",
"@ c #080704",
"# c #0A0704",
"$ c #0B0903",
"% c #0C0903",
"& c #0B0805",
"* c #0C0804",
"= c #0C0904",
"- c #0C0B04",
"; c #0E0B04",
": c #0F0C05",
"> c #100C05",
", c #100D05",
"< c #100C06",
"1 c #100D07",
/* pixels */
"====%=$OOO%<<%==%OOOO=#=$$O.OO<%=<===<<%=O=>>=.O$&%:O%=:%:=$O=$$",
"$=$O=&.OO=%<%$$=%OOOO=%%$&$.OO+O+O=%==OOOO==%=$OOOO&==<======<=O",
"$%O=>>O#O<%==:$$%%OOO%%OO$O.OOOOO%%<<<#=%OO===#.OOOO$#=$$O=#O=<:",
"OOO<>%O&===%:=$$%<+OO=&OOOOO$OOOO%=<%===%&+%%%=OOOOO=#==$$%OO$=%",
"=$OOO+&==<=O$.$O%%+O$<$&%=#O&%OO.$=%<:%&+O+OOOOOOO%OO%%=$=&$&.$$",
"=#O%+O=><=OO.$=O+OOO.=$:<==%=:&..::$$$%&O+O+O+OOOOOOOO&$O:=$$O$%",
"%O=O====%OO#.O=$OOOO$=:=%O%<:==&&:<:$.$=%O OOOO%OO%%+#%OOO=:%===",
"=OOOO>>=%%%%OO=OOOOO==%$OO%%===::$%=&#$:+OOOO.O%%O==<%O.OO%:%==$",
"=OOO+%OO%O&%$$O.OOOOO%==$#$$$$&$$.$$$&$$$&&&.OO$:&$;:%.$OOO==O%O",
"OO%=%%OOO===%$...OOO%O=:$$$&#$$&&$O$$$$.$$$$O.OO=$$:==::%O$==$OO",
"+OOO%=%$===%:%.$OOOO+#==$&$&OOo$$OO$$..$=&$$OOO=::%:<%<:%O%:O%O=",
"===%==<%==##<=..&##OO==%::$&&.$&..$$&.$&::&OO..$:&&%<%==&O$%==%<",
"=>=%$$:%=:=$%O.$OOOO$::&::&&$&$$$$&:::::::==&&&$$$:$&$==%.&=%===",
">%%%$.$O$::&%$..O$OO$::&::&$.$&.$&::::=:::$=:$=#&$O$:==$$OO===%=",
"===O$.$.O==$$&#&==..$&$:$$$.&&==%<:&&.$&:.$$&$OO$$.$==%O.$$===$=",
"<=O#....$&$.$=:$=$.$.$$&#.&$&$%====:&$&:=&$&$$OOOOOO:==$O$%:===:",
"<$O=O..$.$O=&=:%$#$..$&&&&::&&&$===%&O&=$$.$OOO$=#OO%=%%%%:=&$=:",
"O$==$OO$$&&:=::$O#&&::::=$$:=$&&=#$OO$$$.$.$#OO$=OOOOOOO=====$$$",
"&$O=$$$$O&=$&$&&O$::::&::&.$:==&&&O&OO&:$$.$&&$$#OOOO&O%>=<===OO",
"&$OOO&=%===O$O$$&&&$==O$$;&&=<=:&&&$&#::##$&:&.$=#%=%&%<=<<%=$&O",
"OOO.O====<<$$#$$&$$$&=&$&$&&&::&:&&$=:=&#&&$%%..>=O&O$OO===$&==$",
"OO$$&=:=$&%$O$.o$&$$&$==&X-::::<$&&O$$=:&::$.&$.==$&.O$&==#O=:&$",
"==&$&$$=$$.$OOo&O&$O&&=:$o&::&&:&$$...:$$$:&=&O$%==$O====&$$%%$%",
"=::%$$$$$&$&##$:$..&====.$:&&-:::&.&$$:..$;:$&$=#==:=<:&#$=#$%OO",
"==<=O$..$&$$$&$&=$$&:<=&&==&&oo&::$.&&$&..$$$&%<%&&$:<=&OO=:=&$$",
"====.&$$$=$O..&-&=.$::=&&&&&&&&o$&$&&$$&@..&&$<$$$&$%<=%<==::&=%",
"&=:=&=::===$o&&$$.&$::.$&$$:&&&&:$&&&&o&&$$-$o&$$#&O$:$%<:%=&%==",
"&=$=:=:==:==:$$$$$&=:=$&$.&:&::-$&&$&&$-&o$.$$&.O&&$$&O%<%%=$===",
"=:O#==:$=:%=&:$.$&&::&&:$$&::&:&@o@&-&o$&$o&$&$&O%<:OO.=<#=O$=:=",
"$&OO=&:$$&:$$&&$$=$&$$$&&&.$$&:&&&&$-&o&$&&::&=$O::%#OO=<$&OO=::",
"$$O$=$.&&%<&$=:&&:$o.&=&&&o.oo&$$&&$-&&&&:&$&$:&=::#&%$=%$&.%:&$",
"=&O.&&$$&=&:&$$.:&:$$$:&$&:$&&&--@o$&$&o$&.&#.&$==:&O=O$O&#O=&#O",
"$$$.$&&$.&$=:$..&&-&&:::&::&&&$&&&&::&$:==$&.$%$$::&=OO#O%$OO$O%",
"$O...=$O..$$&$&.&$$-1&1:&:&&&o@&&$-&&$$:$..$&&&..&:$%$OOOO$=$$%=",
"$....O.$$$$&$$&$.$&&=&:&&%&:-&&&&&oo&$&$&$.$::&.&$..OO$&OO==+OOO",
"$..OOO$&=$&$$$$&o&&::::&::&::$@&&o$:$&:.$&&$&::$$$$..OO$#O=%O+OO",
".%:$$&$:=$$$$OO$&&-::$::$&&&$.&&$&&&.&$.$&&&&:::&$$$..OO. =#==OO",
"O=%..$&:=:$&$O#&$&&$::&::-oo$.&@&:$$&$&$.&oo&$&;:&...$$..$&===OO",
"==$%$.$&$$$=$$.$&&$&&$&:&$&&-$o&$&$$&&$:&$$$-&&:$#$..$$.OO======",
":O$:$.$$:$&=&$$%:$&$&.$=$$&-&&&o$:&$&&.:&o$-:&&:&$$&.$$$OO====%<",
"&OOO%=%%&$$-::&$:$o&&o.$--:&&&.&<:====&&%&O$$&=$O.O.O=<#$$=>&.$%",
"$.OO%=$O$&$&:$.#&:$$&$&&&-&$$o$o&:=&&==O&O$&&$%O.O...$==O$%%$O:%",
"O.O$%$$Oo&&&&$$$o&:$&&$o$&-$&$&&&::=$=&$OOO&&.$:$O.OO$OOOOO$=O:=",
"OOOOO##=$$::$&$$o&&&:&o&&&-&--&o$:=&===%O#&$.&==%O.$==OOOOOO&OO&",
"..:%O%%$$$##&o$$$$&-::$o.&-:=$$$&:$OO$$&&OOO==&=O.O%#=====OO$#O=",
".$:=====$&&$&..$&-$$&&$&$$&$=&$$$:&$O$=#OOO$=$$&..==O$O=>=OOO$==",
"$$&:%$#=::==-$.&&:&$$:&-&$O$:::.$&::==<OOO$%=$#OO.%=OOO$==OOO===",
"%$$&:$&==::%:$$$:&-:&$$&:&.&&:&$&$=:O.%%O$&$<=#..O%&#O##OOOO%==O",
"$$O$==%=:&===%=<%=::=&O&$=OO&=&&#$==$$=<%&$&<=O.OO..OOOO%%=%=&.$",
"$..$==:%:$OOO.$:&$===$OOO===$&=:$$=:=<::=OO$:=O$.%$.O$O.===&%$.&",
"==$O$&:%$%$$$.O$&&:=&$$$==<:=$#&#O&%::=<<$O$&&$O$=%OOO%%%==#$$$$",
"==$O:%%<<%%$OO###&==$$O$:<=O$&OOOO&:<==<==:&$$O$%OOOO%&===%$=$..",
"$OOO&=<=<=O&.OOO$O.==OO&&$%O.O&:=:=&=$==%O=<=&$&OOOOO+==&OO.$..$",
"OOOO.%%<%OO=OOO#=#O==$$:$.O$O.=:<===:&%=$OO:<=O.OOOOO=%&$$..&$$$",
"OOOOO=%O$O%==OOO$#&&:==<&$$&O$$==O==%%$$&=%=:$.$OOO=OO+=$.$O:<#&",
"%%O%$$OOOO%==O..$==&:=::=:$OO&$O=$O$$&&$$=<===%%OO+=OOO=%O$%$$$$",
"O%%%$$OOOO=<<%.O+%#=$O=====$$$#$==$O==&$%&=:==::O+OO==OO===&.%%$",
"==OOO$$$====:&.$==O%O#=O$%=$$$..&$.:=&$$%O$=&&$%&OOOOOOOO==OO$%%",
"=O.O#===<<==:%$=OOOOO#==$&$:$$&&==$=%$.:>&%=$..$OOOOOO=OO=:OOOO=",
"O=OOO$==<%%O=:<%OOO$=O#===&:$&===::=:$.$=OO=&$.$+OOO&%=>==:%O==O",
"O=%#O%>>OO$=$$==.%==$.OO=%==&$&$O=:O&&..O.O%>=O%==OO&%==OO==OO=O",
"OO%=+O%==O=$$$==$===.O.$&%%=$$$$=$$OO...OO$%=OOO==OOOO%OO$&=OOO ",
"%===O&=>=O=:$$&=%=%%.O.O$$=:&$=::=$O.$..$%==&$OO%%.+OOOOOO$$O$O.",
"==OOO===O%=&$O.=::%$O$.$$$=&==:===O$$%$$%%<==%>==%OO%=%%OO%%%%%O"
};
