/* XPM */
static char *_80b5e41ad614fc8f5c5c8394b807c75vheshvDThxgtYr0b[] = {
/* columns rows colors chars-per-pixel */
"64 64 76 1 ",
"  c #5E91D0",
". c #5F92D1",
"X c #5E91D2",
"o c #5F92D3",
"O c #5F92D4",
"+ c #6093D2",
"@ c #6195D1",
"# c #6194D3",
"$ c #6296D2",
"% c #6397D3",
"& c #6093D4",
"* c #6093D5",
"= c #6194D5",
"- c #6295D4",
"; c #6396D5",
": c #6194D6",
"> c #6295D6",
", c #6295D7",
"< c #6396D7",
"1 c #6497D6",
"2 c #6498D4",
"3 c #6599D5",
"4 c #669AD4",
"5 c #679BD5",
"6 c #6598D7",
"7 c #669AD6",
"8 c #679BD7",
"9 c #689CD6",
"0 c #699DD7",
"q c #6396D8",
"w c #6497D8",
"e c #6497D9",
"r c #6597DC",
"t c #6598D9",
"y c #6699D8",
"u c #679AD9",
"i c #6598DA",
"p c #6699DA",
"a c #6699DB",
"s c #679ADB",
"d c #6698DD",
"f c #679ADC",
"g c #689BDA",
"h c #689CD8",
"j c #699DD9",
"k c #6A9ED8",
"l c #6B9FD9",
"z c #699CDB",
"x c #6A9EDA",
"c c #6B9FDB",
"v c #689BDC",
"b c #689BDD",
"n c #699CDD",
"m c #6A9DDC",
"M c #6B9EDD",
"N c #699CDE",
"B c #6A9DDE",
"V c #6B9EDF",
"C c #6C9FDE",
"Z c #6CA1D7",
"A c #6CA0D9",
"S c #6CA0DA",
"D c #6DA1DA",
"F c #6DA1DB",
"G c #6EA2DB",
"H c #6CA0DC",
"J c #6DA1DD",
"K c #6EA2DC",
"L c #6FA3DD",
"P c #6DA0DF",
"I c #6EA2DE",
"U c #6FA3DF",
"Y c #6C9FE0",
"T c #6EA1E0",
"R c #6FA2E1",
"E c #6EA1E2",
/* pixels */
"MCCMCTPCyggzMzy17HHH7OHTAHHO88H88Z8ZHH88TOaTTOOaOO77yyMfyMMzMzyM",
"CCMMMCMyyggzggyyHHHHHHAHHHHHH8HH8AAHHTHHTOO7OOaO7avajMMMMMyyzMMT",
"CCCMzzy1ggzzyyygHHHHAOHHHHIHHHHTHHHHTTHTYOTOOOYOv7S7MyMMMz6;yzgM",
"MCMgzzg6ygzy61yzHAAOAHHHAHHIHHHHHHH8OHHfYTYOaHYfee7afyyy1y;yMMy6",
"MMzzzMMyygMy1;yzHHAA7ASZ8HHTHHHHTTHHTOTfYfOOOfffe22jfeyj;6yyMM6y",
"MzMyzMCMzzggy6yzHHHHAA7OHHHHHHHHTTOTOTTOOffOOOdOeeyvvjyvyMyyMzzP",
"MMgyyMCCMMMgzzMg7HHH7HS7AHAA8ZAZOHHOTOOOfOOYYOffHejMM2;yyMzyzyzT",
"CMg6yzCCPMMMCMMMXAHHaHFFOAO8O7OAaOOfOTOTOOOOfOOOE7vMM;O2o6zgMy6M",
"yMMy1yzyMyyCCgyMJ7SJSOOo.OjjHHHHHTTOO77OOO7aOHTEMyjvjeeM666zj;;M",
"ygMyygzgCyyMCgyMZO7HHS7ASHHHHSHj7HHTHTTTHHvETHTTMMvjy2jvMzMHj;qM",
"yzMgzMMMMggMCggMS.OHHHJJHHHHHjSjOZOAHHHHHSHTTHHHzzjjjjjjS0zSHjzP",
"gMMCCMMMMzzMCMzzJ77HHJJJSSHHjj5jZSOOO7AAHSSJHaAAS0jjjyjHz65zHSSS",
"CCCPPCMzMzgMCMMgJ777jHJHHJHHj22oAA777HHOHASAAOOHzjjjjSjHHSjzzj55",
"TCMCPMzMMzzMMMMzH77S7STTHHHHjjjjHHHHHHHAT7OAHHH7S5jjHSHHHHSSzSjj",
"CzyMMzzzgzzzzMgg77S577HHHHHHjHSSOHH7OA77HHASHHHHS56ZSSSS5SPZjZSS",
"My1yzggMgzzzzzMy77SSO7jHHHHSj72jaHH7A7OAAOOHHHAAS555SGHKSHKS5655",
"zPMyzzygzyyyMMMyzg0556jzjHHSSS552HHj2jj2727HHjHJSSjjjHHHTJJHSjjj",
"CTMzMMgMzgzzzMMMgyzzSjSSjjHKS5552jSjjjjjj7jHHSHJj6jjHHHHJJHHSjjj",
"PTCyMMMMMMMzzggy;160jjjjHHHHSS552jjMj5jjHjjHHSvHjjjHHHjjHHHvHjHH",
"CPz6yzzzMMzgy1;;;1062jj5jHHHSS5SjjjHjjjjjHHHjjjjHHSjSHHHjSHSjjHj",
"MPg6zMgMMzzgy661MMHy2jHHjjjHSjj5HjHjz55jjHHjjjjjjje5SHHRjjHjjHHH",
"CPMgMMMCzgyzMMMzMTMe2jjj72jjjS5jHHHjjj22jjj77jj7jj22275j77jjjjjj",
"MPMyMCMMMgyyCTCgyMv2;yvjjjjSjSjHjHHjyvjOjMvj7jHjHHjjj7227jjjjjHH",
"gMzyMMzzPz6yMCg;qMMyyMMy7jjSvjHHjHH2yvj;evHe7jHH22jHHHHj7jjjj7jj",
"yzPyyg1CC+MCMCg1jq2yMTMy65zzjSHH2jj5evvjjvEESHHHH77SATHHHHjj7jjO",
"yzCgyy;MC#zMyMgyyyyyMMMM5zz055jjjjjjHHMye77j72jSHA7O777H77jHHjS.",
"ygCyyg;MM;zMyggzqq;yyygMjjj66222jjjjETYeO2eOO25jH777777777HH7jS.",
"ygCggy#zz6zzyyyyq;;;;;yMy66626jjjjj6zvyqOeOO2jjjHA7AaHH777777SSS",
"ygCgzg#yyyMMz6y6fyqyqo;Mye;6yySSPSz62;OqrOa7aHHHHHH77HS777777SHj",
"ygCgzM;yygyCCyy1Yfffy;;yzyy1yM0zSzjeOOOqOa7THaH7H77HH77H27HH7HH7",
"zzPMCM;yzM6MCyz1YfyYMq;MHbyyyzz0z52yeeqrrOaaaHHH7AHH7HSH7jHH7jH7",
"zzTMCC;1MC1zCyz6M;qMb;;yMjy1yzzS22#6Mvvva7eO7THHHHTHHHHTHHHH77HH",
"j77HHHHHSjjjjS6j2y22yMMyHM2jjH5jS52jHvvMHvvjjjHHT22jHSjHHH7HH7HT",
"jjjHHjHHSjj5jjjjyjy6yjvjYMj5HHSSjjjjjjjjSvHHSjHHHj7jSSHHH77Hj77H",
"jjjHHHHHvjjejSj2jz56qyvyvM52jHSSH5jjSj5jSSHHHSSjJHSjS7vHH7jjH7SH",
"HHjHHjjHSjjjjHjj5zz2;yyyvj22jzZGMjjjHjjjjjjSSvHjHTH7O2SHHHHHH7HH",
"jHjHHjjjHj7jjHjjSSS565MMMMj2z0zSS6jHHjjjj55ejSHSjJT7277jHH7HHSaH",
"jjjHHjjjSjjjHHHjSSHzjMHMMMjjzMSPjjjjHjjHj6226zHPjHHj77j7HHaAHHSS",
"jjjHHjjjHjjjHHHjSHHSMMMyyMMjMMMTj2jHHHjHjj565S055jHHSjjjHA7HHHH7",
"77jjjjjjjj7jjHHSjSvyyj;O;yyyMMjMj7jHHHHHSjjjSz06jSHHHHS7HHHHHHHH",
"Hj7HHjHHjjjjHHvjOjYy;O;2;;ooOyMEEyeHTMyMbzyyygzzfAZHHAZHHAHHH7HT",
"HHjSHjjHjjSHHHjjvveOo;yjj62;;qq2jfjvMMMyygy666ygHHHTHHHIHa7HH7HH",
"THSHHS7jjjjjHHjjYf;XOyMMvMMMy2;oyMMyyTYj6;66yzPPHHHTHHHHHSHHH7HH",
"HjjHHv77jjjjjjjeffq;yfMMMSEKTzyeyMHMMMMM;666gMPPAHHTHHHIHHAHHHHH",
"jjjHHHjjjjvSSSzM;ryfyMHHSSHKKHSSMMMYMyyTMzzg66668ZHHHHTTHZHHHHHH",
"HjSHHHHHHHHHHPHH;qfyyzPPSSSSSSSSHMMMM;yMMMzzzzgyOHHHHHHHAHJHHHHH",
"THHHHHHHSjjjHHPHqe2qjHKKSGSZSSSSHMzjy;;2668zzzCMOHH8ZHHHOJJHHJTH",
"HS7jjj772j2jjSzvqqOezKP0GGGGGGGPMEM;;;;ooo##;116AHH8OAAOAHTHHJTH",
"Hj7HHS7OHOOHvHHveeqqyHKKKKKHSSSHHHHjjjjo ;6#6zCyO8OHje6jyMHMYTYM",
"jSHHHHHHE7eHHvMjfqqq2MPPKPHKHHHHjHHjjSS26gy1;zMzHOHOeyyzMMMMMMMz",
"2Sj7A7SJH7vvfjvjffeO;jMSKHKHHHHSjHHSjHz5zMMyzzMyaH7O2yyyMMzyyMyg",
"jvHj77O7TvHvyyyerYy;OyjzHHSGHHHMHHHHHHHjzMPPMMz6OOHH6jeOMMyMyzyz",
"JHH7HH77MMMyyye6ffy;o;jjHHHHTHHHHHHHSHz5zzCzMzMy7Hva7vj;MzzyzyMM",
"H77SHHHHMPf;yy22qffqoO;jjSHHHHHMHHHHHSjjMzg66zMPHTH7vvvEzzzMMggM",
"777SHHH7MPy;yMyyqyj6ooeyvzHHTMHMHHHHHzzzzy6y6yzMTHaajvHTMzgMCyyM",
"7jJTH77HMPy;jMyqOyM6oo2yvMHEEHMMHjjjSSSS66zCMz66aa7HvjvHMMMPMy66",
"HHHJHjjHMMM66yMM;qyffeqOfyvMeqyfjHjjjjjSCzyzzyzMyyygyzMPMyyMMzyz",
"SHHJHjjjMzzy;yzyeeyfq;;Oeeef;;yjjHHj6jjSzzzzzygzMMzyMMMMMMMMPMgM",
"vSJKHjjjgzy;;yyyMvye;Oq;eo;eOOyjHHHjSvjHCMPPCyyzMMMzMzMMMMMMMMMM",
"HHHRHj5jzzg66yyyvMveqqee2OOeO;yHjHHHHjjjyzzzz6yMMMMMMMzMgzMMMyMP",
"HHHJSz5jMzy6yygyySMjyyvyf;;e2ezHjjjHjjj7##;;;;;zMMMPPMMzyzzMMzMC",
"HHHJSzjSzMyyyMzy5zHzMMYfMeyjejHHjjHHSjjj;##66yyzyyMMMMzzMzyMgyMM",
"HHHHS0zSzyy6zMMy5SSzzHMfHyyHjjSSjjHjHjjj616zPMyg;6yMMMMzMyyMMMMM",
"HSHHzzSPzg61jMM60SG5jHMyTjjMjjjjHHHHjjjj##;zPz6o#;yzMMzzMMyzMPMT"
};
