/* XPM */
static char *_553b30c64f84b98aa37b720713d5fc82EmQ5vHnNwhM9LbA[] = {
/* columns rows colors chars-per-pixel */
"64 64 79 1 ",
"  c black",
". c #040404",
"X c gray2",
"o c #070707",
"O c gray3",
"+ c #080809",
"@ c #0B0B0B",
"# c #0C0C0B",
"$ c #0C0C0C",
"% c #0E0E0E",
"& c gray6",
"* c #100F0F",
"= c #0E0F10",
"- c #101010",
"; c gray7",
": c #141413",
"> c #131314",
", c #131414",
"< c gray8",
"1 c #181817",
"2 c #171718",
"3 c #171818",
"4 c #181818",
"5 c #1C1B1B",
"6 c #1B1B1C",
"7 c #1B1C1C",
"8 c gray11",
"9 c #1C1C1D",
"0 c gray12",
"q c #201F1F",
"w c #202020",
"e c gray13",
"r c #232323",
"t c gray14",
"y c #272727",
"u c #272728",
"i c #272828",
"p c #282828",
"a c gray16",
"s c gray17",
"d c #2B2B2C",
"f c #2B2C2C",
"g c #2C2C2C",
"h c #2D2D2D",
"j c #2F2F2F",
"k c #2F3030",
"l c gray19",
"z c #313131",
"x c gray20",
"c c #333334",
"v c #333434",
"b c #343434",
"n c #353535",
"m c #373737",
"M c gray22",
"N c gray23",
"B c #3C3C3C",
"V c #3E3E3E",
"C c #3F3F3F",
"Z c gray25",
"A c #444444",
"S c gray28",
"D c #474748",
"F c #484848",
"G c #4C4C4C",
"H c gray32",
"J c #535353",
"K c gray33",
"L c #555555",
"P c gray34",
"I c gray35",
"U c #5B5B5B",
"Y c gray36",
"T c gray37",
"R c gray39",
"E c #656565",
"W c #686868",
"Q c #6A6A6A",
"! c #6D6D6D",
/* pixels */
"04<<<<<<;< aa<0404404401044%ze4e04e0<0%<tetette005@e7404440444<%",
"ze4e00e04e%VZazhttzaeahaaa0:Fheattte0tttNnnzznnnnz4nttteetatert<",
"ze<4<;4440@SF4ahathaeezt0a04Fh4e4<000eeaMkznzznnNneneeeerette0u0",
"ze404<<444 FF@aethttetaleah0Fh0ee60ee40hNznzznzzhntnettatreteet4",
"ne<40<4004 FG4atahteta0taeheGh4ee0ete40hVznhzzzzzzaVtttteeeteet4",
"zt44004404 GHazehhaatteazeatGzeete00eeezVzznnzzzzntZtttttattette",
"n0%;;@<<@; FFXe4<4<;4<%<e<4%GaX%<X4<@%<zVazzhhhzhztZe314400<440<",
"NVznzzNnnNnF!TTTRITRTRRRETTGLIGHHGHJFLLZHGFFFFFFFFVFHFFGGGHGGHLF",
"4aaataaaaaa4VFSSFZSSZFFDFFSVennMnnnnNnn0eaaieaatae0;ahathaaaaaae",
";          X             <  <XXX  @ 0X >% @%@@@%@%% 4a*34444;<4X",
"4;%%%%%%;%@%;4440440400<0h<4<><4<<4<h0444<<4;%44%<<@ez;0412044e4",
"<%%%%%%%%%@%@44<<<<<<2<;2a;<:;%<<;;;h4%;;<4<;;<4<;<;ez<04<;<4444",
"4%%;%%%@@%@%@<4<4<<<<<<;2h%;<<,<4,;;a0;2;<4;%;<%<<4<tz;441<00<<5",
"0;%%@@%%@%@%@;4<<<<14<<;0d<;<<<;<<;;h0<:;4<;;;;;<<%;tn42604340<0",
"4%@@@@@%@X@@X34<;<;;<<<>0a%%;%#>%@%;h<>;%<%%%%%X;<%Xeh;:<;;;;%;4",
"e4<;44<44<44<ee40440464<0nuetteatuatzhaaattaataaaaathVhahahzhhnh",
"<e00000eee005400e0e000220hhhzhhhhhhahzzhnzazzhzvzzzhtnnnvznnnnnh",
"heee000eee00@hzzkhzzakz<nV;etete60e4Feaaeetaeetaet0;qa%2444<;;, ",
"netteretteea2nnnnnznnNNanS;t0<0e00arHahzhehhe0hhea00ah<4444044e0",
"neettteeeeet4NnhzzczzznanS<t004000eeIeettaaat0azteattz<04<;4444<",
"Nttattreteet;VnnzhnzzzzhNZ%eee0er04tLttaehaeettehthaaz;441<00<<4",
"Ztatretteeet4VnzznzzzzzaVF4eee00ee0tTnzethaatta0hueaaz44604404<q",
"V40444e04444;VzhzzhhhhztNZ@;4;;<;%;eItte4t44<4<%te<eth,;<;;<;;;4",
"GVznNnnNnNVVzFSVZVVZVZVVZINVVnVZVVZNEHFFGFFFGGGGGGFFNVaahtakahzh",
"NFDSSFFFFFFHZnSZZZZFZVZVhGHGHGGGFJHVFRTIRIITTIRRTTITNznnnznnnNnh",
"i%@%%%%@ % ;6%%@XX%@X%;@;   t; @XXX;                 XXX XX@    ",
"ze404<40400ah1ee74q0<4e4;04<zt4044e06eeeteeeeeeeee3e;<<;<<<<;;4;",
"n0444<440<,aa%4<<04<2<00>0e<ze<04<>44<44e404040440,0;;<<<<:;;%;%",
"ne4<04400;;hh,0200<4<e;10<0<ne<403640;4ee600400000<e;<<;;;;;;;;%",
"z0<<4;;;:%;hh44;4<;;;;%;4;<>ze<<<;;;<%;0044444<444,e%%%@%;%%@@@@",
"NzttathaahhhNahahaahahhhhaheNcuaatzhahzuietetteeet0at0ee0eteeeee",
"azzzhzzzzzz0hzhznhzzhznznnzatchzzhhznhz00ee000e0004>ruettetteteq",
"%          X %%%@%%%@#% 3tX<;%;;@%;Xr%%<;%;<%%;<;<% ta<04000;40@",
"4%%%%%;%;%%=%4<4<4<4444;et;4;;;<<;64h2334;<4-%44%<;@ah<4<;24;4e;",
"4@%%%%%@%@@%@3<<<<<<<<4%eu%<;;%,<,;<h;;;;<<;;;<4<;2%aa<04<<40<4<",
"4%;%%%%@%%@%@443<<<2<<<=ea@;<<;;<;;<h<<<<<2;-<;%1;1%ah;<0<400<14",
"0%%%%@%%@%%%@43<1<<<<<<=ea<<<2<;<>;0n44:;2<<;;;%2<;%hh22044<4240",
"4@@XX@@@XX@XX7<<<<<<;><%ei@%%@%;%X%<h;;;%;%@@%@@;;%Xaa%;<%<<%@<<",
"e044070004004ee000000004eNaahuhhdhzanzhazhhhhhzzzzhanZzznhnnnnVh",
"<044444640444;<444<23333<ttehztaaaaeehaahaudpaharatt0ahhhahhhahe",
"00%<;%;;;%%;;;<@X;<;;;;;;%% kSehieeaueeaeta4,=t@;;@@;%XX%%X%   %",
"eu;44<;4<%;4<;<%%244<4<<444 nGehhaeha0ezaea0e4k,<4<;44;%44;<;;%%",
"ea@;<;<<<;;44;;<;2<<<4<4<24 VH@ttthaaeehketht<h%;:;<<<;%<4;<4<%%",
"ea@<;;4<%;<%<<<4;44<<<<<<<4 nH>aaezteeaetaaha2h;<<;4>;;;;;<<4;%%",
"th;4;<4<<;;;;3-<<44<<<<<<<4 NItzeahaieaeehtth3n44;;4<;;;;%4<;<;%",
"ea%<%;;%%%%%%>;%;4<;<4<<><2 NH;t4ee<<<<=;t4<0<h%<;@;%%@%%X;;@%%%",
"eneeeteettttettte0040<04247@nQGHGHFGHHHHLHGGFenhhhhhahhhklhhhh4%",
"%znzznhzzzznnzzhh460607004074HTLITLLTLITTITLL46hathauaaahaaaat<@",
"a;<44<4<;< e<;;%;<<<<<<<4<@;h                <;%%X ;XXX   @X  @X",
"z40044e44e4ht0e0<4e4,0e<0<;2zeee00e00ee0teeee00ee4<0;<<;<<<<>,<#",
"z44<<;<440<ze;<04000;4e4<<<4z<0<<;<424400400400400<0%;;;<;;;%;;%",
"v<400<444<<ze-0;40;<24404000n<404;404<40004045e<44<0;<<<<;;;;%;%",
"n4<403404<4zr344044414;44<40n4<404400;4e04040400444t;<,;;;;;%;;%",
"z0444<<<4<1ca00<04<<<<;40<26z0224<;;<;4e0440744440<0%;%%;;%;%%%@",
"N0<004e00e0za00ee000ee0ee000Br40e<te0ettt0e0q00e000a<4344424<00<",
"NNNNnNVNVVNhVBnNNzNNNVVNBBBunBBBnNVVNVNeauattatttu4aaaaaahhhahhe",
"e00e000e040;@aaaathaettXzneeeeee4e4eV4teee0eeeee0e0*0e<<44<1;;; ",
"neet0eetteet<nnnznznnNNeVV;teetteethFazzathheehheh04ah<0400e40t<",
"N0teeettteet4nzznzzzznntVV<e0<40e<ehI4taatahe0hh0tteah<7<><44<0<",
"n0ttuteeteeeeNnczznnzznaVV;eee7ee04hL4taehaeetthatzaah;e0;<40<4<",
"Veateeeeteee4VczzzzzzzzaZS;0eeetr04zItatthhttte0hetahz;<04200214",
"Vetteeateeee0NzvznzzzzntVV00t004e04zThztthtteteekaeahh<4441<4<<0",
"S440000004004SnznhzzzzzaSZ@;0;0e440hTeaattttaatthat0hz;;0;<0<<e<",
"GGGFGGGHHGHLSFGFGFFGFFFSZRHLLHLLLIIDEQERQRRQEEQQEERRVVNNNcNVVCZn"
};
